<svg width="38" height="38" viewBox="0 0 38 38" fill="none" xmlns="http://www.w3.org/2000/svg">
<g id="Instagram">
<g id="Group">
<g id="Group_2">
<path id="Vector" d="M12.16 2.28003C6.71271 2.28003 2.28003 6.71271 2.28003 12.16V25.84C2.28003 31.2873 6.71271 35.72 12.16 35.72H25.84C31.2873 35.72 35.72 31.2873 35.72 25.84V12.16C35.72 6.71271 31.2873 2.28003 25.84 2.28003H12.16ZM12.16 3.80003H25.84C30.4658 3.80003 34.2 7.5343 34.2 12.16V25.84C34.2 30.4658 30.4658 34.2 25.84 34.2H12.16C7.5343 34.2 3.80003 30.4658 3.80003 25.84V12.16C3.80003 7.5343 7.5343 3.80003 12.16 3.80003ZM28.12 8.36003C27.2806 8.36003 26.6 9.04056 26.6 9.88003C26.6 10.7195 27.2806 11.4 28.12 11.4C28.9595 11.4 29.64 10.7195 29.64 9.88003C29.64 9.04056 28.9595 8.36003 28.12 8.36003ZM19 10.64C14.3919 10.64 10.64 14.3919 10.64 19C10.64 23.6081 14.3919 27.36 19 27.36C23.6081 27.36 27.36 23.6081 27.36 19C27.36 14.3919 23.6081 10.64 19 10.64ZM19 12.16C22.7867 12.16 25.84 15.2134 25.84 19C25.84 22.7867 22.7867 25.84 19 25.84C15.2134 25.84 12.16 22.7867 12.16 19C12.16 15.2134 15.2134 12.16 19 12.16Z" fill="#C2EFD4"/>
</g>
</g>
</g>
</svg>
